<svg width="716" height="110" viewBox="0 0 716 110" xmlns="http://www.w3.org/2000/svg">
<path fill="white" d="M681.472 86.4794V75.3494H691.132V24.3194H681.472V13.1894H714.757V24.3194H704.992V75.3494H714.757V86.4794H681.472Z"/>
<path fill="white" d="M659.329 86.4795L653.449 67.7895H627.409L621.634 86.4795H607.564L632.134 13.1895H649.354L673.714 86.4795H659.329ZM640.639 25.7895H640.114L630.769 55.9245H650.089L640.639 25.7895Z"/>
<path fill="white" d="M556.113 87.7392C552.053 87.7392 548.448 87.0742 545.298 85.7442C542.148 84.4142 539.488 82.4892 537.318 79.9692C535.218 77.4492 533.608 74.4392 532.488 70.9392C531.368 67.3692 530.808 63.3792 530.808 58.9692C530.808 54.5592 531.368 50.6042 532.488 47.1042C533.608 43.6042 535.218 40.6292 537.318 38.1792C539.488 35.6592 542.148 33.7342 545.298 32.4042C548.448 31.0742 552.053 30.4092 556.113 30.4092C561.643 30.4092 566.193 31.6342 569.763 34.0842C573.403 36.5342 576.028 39.9292 577.638 44.2692L566.613 49.2042C565.983 46.8942 564.793 45.0042 563.043 43.5342C561.363 41.9942 559.053 41.2242 556.113 41.2242C552.333 41.2242 549.498 42.4142 547.608 44.7942C545.788 47.1742 544.878 50.2892 544.878 54.1392V64.1142C544.878 67.9642 545.788 71.0792 547.608 73.4592C549.498 75.7692 552.333 76.9242 556.113 76.9242C559.333 76.9242 561.818 76.1192 563.568 74.5092C565.318 72.8292 566.683 70.7642 567.663 68.3142L577.953 73.2492C576.133 78.0792 573.368 81.7192 569.658 84.1692C565.948 86.5492 561.433 87.7392 556.113 87.7392Z"/>
<path fill="white" d="M512.184 23.6894C509.384 23.6894 507.354 23.0594 506.094 21.7994C504.904 20.5394 504.309 18.9294 504.309 16.9694V14.8694C504.309 12.9094 504.904 11.2994 506.094 10.0394C507.354 8.77941 509.384 8.14941 512.184 8.14941C514.914 8.14941 516.909 8.77941 518.169 10.0394C519.429 11.2994 520.059 12.9094 520.059 14.8694V16.9694C520.059 18.9294 519.429 20.5394 518.169 21.7994C516.909 23.0594 514.914 23.6894 512.184 23.6894ZM505.464 31.6694H518.904V86.4794H505.464V31.6694Z"/>
<path fill="white" d="M483.306 86.4793C478.686 86.4793 475.151 85.2893 472.701 82.9093C470.321 80.4593 469.131 76.9943 469.131 72.5143V42.3793H461.046V31.6693H465.246C467.276 31.6693 468.641 31.2143 469.341 30.3043C470.111 29.3243 470.496 27.8893 470.496 25.9993V16.6543H482.571V31.6693H493.806V42.3793H482.571V75.7693H492.966V86.4793H483.306Z"/>
<path fill="white" d="M404.463 86.4794V31.6694H417.903V40.8044H418.428C419.548 37.8644 421.298 35.4144 423.678 33.4544C426.128 31.4244 429.488 30.4094 433.758 30.4094C439.428 30.4094 443.768 32.2644 446.778 35.9744C449.788 39.6844 451.293 44.9694 451.293 51.8294V86.4794H437.853V53.1944C437.853 49.2744 437.153 46.3344 435.753 44.3744C434.353 42.4144 432.043 41.4344 428.823 41.4344C427.423 41.4344 426.058 41.6444 424.728 42.0644C423.468 42.4144 422.313 42.9744 421.263 43.7444C420.283 44.4444 419.478 45.3544 418.848 46.4744C418.218 47.5244 417.903 48.7844 417.903 50.2544V86.4794H404.463Z"/>
<path fill="white" d="M386.131 86.4792C383.191 86.4792 380.846 85.6392 379.096 83.9592C377.416 82.2092 376.366 79.8992 375.946 77.0292H375.316C374.406 80.5992 372.551 83.2942 369.751 85.1142C366.951 86.8642 363.486 87.7392 359.356 87.7392C353.756 87.7392 349.451 86.2692 346.441 83.3292C343.431 80.3892 341.926 76.4692 341.926 71.5692C341.926 65.8992 343.956 61.6992 348.016 58.9692C352.076 56.1692 357.851 54.7692 365.341 54.7692H374.686V50.7792C374.686 47.6992 373.881 45.3192 372.271 43.6392C370.661 41.9592 368.071 41.1192 364.501 41.1192C361.351 41.1192 358.796 41.8192 356.836 43.2192C354.946 44.5492 353.336 46.1592 352.006 48.0492L344.026 40.9092C346.056 37.7592 348.751 35.2392 352.111 33.3492C355.471 31.3892 359.916 30.4092 365.446 30.4092C372.866 30.4092 378.501 32.0892 382.351 35.4492C386.201 38.8092 388.126 43.6392 388.126 49.9392V75.7692H393.586V86.4792H386.131ZM363.871 77.9742C366.881 77.9742 369.436 77.3092 371.536 75.9792C373.636 74.6492 374.686 72.6892 374.686 70.0992V62.8542H366.076C359.076 62.8542 355.576 65.0942 355.576 69.5742V71.3592C355.576 73.5992 356.276 75.2792 357.676 76.3992C359.146 77.4492 361.211 77.9742 363.871 77.9742Z"/>
<path fill="white" d="M316.872 77.3443H316.347C315.367 80.4943 313.512 83.0143 310.782 84.9043C308.052 86.7943 304.867 87.7393 301.227 87.7393C294.297 87.7393 288.977 85.2543 285.267 80.2843C281.627 75.3143 279.807 68.2093 279.807 58.9693C279.807 49.7993 281.627 42.7643 285.267 37.8643C288.977 32.8943 294.297 30.4093 301.227 30.4093C304.867 30.4093 308.052 31.3543 310.782 33.2443C313.512 35.0643 315.367 37.5493 316.347 40.6993H316.872V8.7793H330.312V86.4793H316.872V77.3443ZM305.532 76.6093C308.752 76.6093 311.447 75.8393 313.617 74.2993C315.787 72.7593 316.872 70.5543 316.872 67.6843V50.2543C316.872 47.5943 315.787 45.4593 313.617 43.8493C311.447 42.2393 308.752 41.4343 305.532 41.4343C302.032 41.4343 299.197 42.6243 297.027 45.0043C294.927 47.3143 293.877 50.4293 293.877 54.3493V63.7993C293.877 67.7193 294.927 70.8343 297.027 73.1443C299.197 75.4543 302.032 76.6093 305.532 76.6093Z"/>
<path fill="white" d="M262.106 31.6694H274.706L252.656 96.2444C251.956 98.2044 251.151 99.8844 250.241 101.284C249.401 102.754 248.386 103.944 247.196 104.854C246.006 105.764 244.571 106.429 242.891 106.849C241.211 107.269 239.251 107.479 237.011 107.479H228.926V96.7694H238.796L241.316 89.1044L221.681 31.6694H235.016L244.571 60.6494L248.141 74.5094H248.771L252.551 60.6494L262.106 31.6694Z"/>
<path fill="white" d="M162.08 86.4794V13.1894H195.05C198.41 13.1894 201.42 13.7494 204.08 14.8694C206.81 15.9194 209.12 17.4594 211.01 19.4894C212.9 21.4494 214.335 23.8294 215.315 26.6294C216.295 29.4294 216.785 32.5094 216.785 35.8694C216.785 39.2994 216.295 42.4144 215.315 45.2144C214.335 47.9444 212.9 50.3244 211.01 52.3544C209.12 54.3144 206.81 55.8544 204.08 56.9744C201.42 58.0244 198.41 58.5494 195.05 58.5494H175.94V86.4794H162.08ZM175.94 46.5794H193.79C196.45 46.5794 198.55 45.8794 200.09 44.4794C201.63 43.0094 202.4 40.9444 202.4 38.2844V33.4544C202.4 30.7944 201.63 28.7644 200.09 27.3644C198.55 25.9644 196.45 25.2644 193.79 25.2644H175.94V46.5794Z"/>
<path fill="#E72564" d="M62.3737 105.207C59.5781 109.047 53.8509 109.047 51.0553 105.207L27.7796 73.2344C25.0105 69.4307 26.7073 64.0329 31.1546 62.4977L54.4303 54.4628C55.9102 53.9519 57.5187 53.9519 58.9987 54.4628L82.2744 62.4977C86.7217 64.033 88.4184 69.4307 85.6494 73.2344L62.3737 105.207ZM56.7145 99.3879L78.3862 69.6187L56.7145 62.1375L35.0428 69.6187L56.7145 99.3879Z"/>
<path fill="#E723A0" d="M110.86 61.7624C113.648 65.6079 111.878 71.0547 107.362 72.5268L69.7621 84.7833C65.2889 86.2414 60.6796 82.9597 60.5938 78.2556L60.1447 53.6362C60.1162 52.0708 60.6132 50.5411 61.5564 49.2914L76.3907 29.6379C79.2251 25.8826 84.883 25.9369 87.6448 29.7459L110.86 61.7624ZM103.577 65.3465L81.9617 35.5363L68.1497 53.8355L68.5678 76.7583L103.577 65.3465Z"/>
<path fill="#E520E9" d="M84.5326 2.25877C89.0515 0.795227 93.6849 4.16159 93.6894 8.91158L93.7269 48.4589C93.7314 53.1638 89.1859 56.5333 84.6856 55.1613L61.1323 47.9806C59.6347 47.524 58.3334 46.5786 57.4364 45.2954L43.3288 25.1139C40.6333 21.2577 42.4333 15.8935 46.9092 14.4439L84.5326 2.25877ZM85.6907 10.2928L50.6601 21.6382L63.7955 40.429L85.7256 47.1148L85.6907 10.2928Z"/>
<path fill="#E520E9" d="M28.9346 2.27586C24.4156 0.812317 19.7823 4.17868 19.7778 8.92867L19.7402 48.476C19.7358 53.1809 24.2812 56.5504 28.7816 55.1784L52.3348 47.9977C53.8324 47.5411 55.1337 46.5957 56.0307 45.3125L70.1383 25.1309C72.8339 21.2748 71.0339 15.9106 66.5579 14.461L28.9346 2.27586ZM27.7765 10.3099L62.8071 21.6553L49.6717 40.4461L27.7415 47.1319L27.7765 10.3099Z"/>
<path fill="#E723A0" d="M2.58066 61.7555C-0.20768 65.601 1.56213 71.0479 6.07825 72.52L43.6784 84.7765C48.1516 86.2346 52.7608 82.9529 52.8467 78.2488L53.2958 53.6294C53.3243 52.064 52.8273 50.5342 51.8841 49.2846L37.0498 29.631C34.2154 25.8758 28.5575 25.9301 25.7956 29.739L2.58066 61.7555ZM9.8636 65.3396L31.4788 35.5294L45.2908 53.8286L44.8726 76.7515L9.8636 65.3396Z"/>
<path fill="#FF96D1" d="M79.5687 81.5867L85.6488 73.2348C86.1993 72.4787 86.5733 71.6596 86.7842 70.8204L74.626 74.7836L67.1038 85.1164C67.9705 85.1767 68.8689 85.0745 69.7619 84.7835L79.5687 81.5867Z"/>
<path fill="#FF96D1" d="M60.167 54.8667L60.3224 63.3836L68.3744 66.1632L68.219 57.6463L60.167 54.8667Z"/>
<path fill="#FF96D1" d="M93.7166 38.12L87.6446 29.7459C87.0975 28.9914 86.4368 28.3842 85.7069 27.9248L85.7191 40.7186L93.2279 51.0742C93.5492 50.2726 93.7273 49.3919 93.7264 48.4587L93.7166 38.12Z"/>
<path fill="#FF96D1" d="M70.4293 50.8149L62.2812 48.3308L67.413 41.5318L75.5611 44.0159L70.4293 50.8149Z"/>
<path fill="#FF96D1" d="M56.7395 44.2982L61.6199 37.3166L56.7395 30.3349L51.859 37.3166L56.7395 44.2982Z"/>
<path fill="#FF96D1" d="M44.5547 15.7438C45.2222 15.1823 46.012 14.7344 46.9092 14.4438L56.7071 11.2705L66.5577 14.4608C67.4418 14.7472 68.2215 15.1862 68.8828 15.7363L56.7071 19.6796L44.5547 15.7438Z"/>
<path fill="#FF96D1" d="M51.1787 48.3499L46.0469 41.5509L37.8988 44.035L43.0306 50.834L51.1787 48.3499Z"/>
<path fill="#FF96D1" d="M20.2233 51.0523L27.7476 40.6752L27.7598 27.9014C27.0194 28.3627 26.3494 28.9754 25.7957 29.739L19.7501 38.0767L19.7402 48.4757C19.7394 49.3938 19.9118 50.2611 20.2233 51.0523Z"/>
<path fill="#FF96D1" d="M53.2727 54.8623L45.2207 57.6419L45.0653 66.1588L53.1174 63.3792L53.2727 54.8623Z"/>
<path fill="#FF96D1" d="M46.3199 85.1104L38.7916 74.7693L26.6406 70.8084C26.8511 71.6518 27.226 72.4749 27.779 73.2346L33.8488 81.5724L43.6778 84.7763C44.5653 85.0656 45.4581 85.1683 46.3199 85.1104Z"/>
</svg>
